<svg width="163" height="28" viewBox="0 0 163 28" fill="none" xmlns="http://www.w3.org/2000/svg">
<g clip-path="url(#clip0_1_637)">
<path d="M45.5557 21.1673C44.1489 22.5375 42.4499 23.2226 40.4585 23.2226C38.4306 23.2226 36.7224 22.5375 35.3339 21.1673C33.9454 19.7788 33.2512 18.0706 33.2512 16.0427C33.2512 14.0148 33.9454 12.3157 35.3339 10.9455C36.7224 9.55704 38.4306 8.8628 40.4585 8.8628C42.4681 8.8628 44.1672 9.55704 45.5557 10.9455C46.9624 12.3157 47.6658 14.0148 47.6658 16.0427C47.6658 18.0524 46.9624 19.7606 45.5557 21.1673ZM36.6219 19.9067C37.6632 20.9481 38.9421 21.4688 40.4585 21.4688C41.9748 21.4688 43.2537 20.9481 44.2951 19.9067C45.3364 18.8288 45.8571 17.5408 45.8571 16.0427C45.8571 14.5263 45.3364 13.2475 44.2951 12.2061C43.2537 11.1465 41.9748 10.6167 40.4585 10.6167C38.9421 10.6167 37.6632 11.1465 36.6219 12.2061C35.5805 13.2475 35.0598 14.5263 35.0598 16.0427C35.0598 17.5408 35.5805 18.8288 36.6219 19.9067Z" fill="#0D114E"/>
<path d="M57.1051 8.8628C58.7493 8.8628 60.0556 9.37435 61.0239 10.3974C61.9922 11.4023 62.4763 12.7633 62.4763 14.4807V22.8938H60.6676V14.4807C60.6676 13.2566 60.3388 12.3066 59.6811 11.6306C59.0416 10.9547 58.1282 10.6167 56.9406 10.6167C55.5704 10.6167 54.4834 11.046 53.6795 11.9047C52.8939 12.7633 52.5012 14.0331 52.5012 15.7139V22.8938H50.6925V9.19165H52.5012V11.3292C53.5242 9.68493 55.0589 8.8628 57.1051 8.8628Z" fill="#0D114E"/>
<path d="M74.2496 12.7816C74.2496 13.8412 75.1905 14.6177 77.0723 15.111C77.6021 15.2389 77.9492 15.3302 78.1136 15.385C78.2781 15.4216 78.5978 15.522 79.0728 15.6865C79.5661 15.8326 79.904 15.9605 80.0867 16.0701C80.2877 16.1797 80.5617 16.3533 80.9089 16.5908C81.256 16.81 81.5026 17.0384 81.6488 17.2759C81.7949 17.4951 81.932 17.7875 82.0599 18.1528C82.1877 18.5 82.2517 18.8745 82.2517 19.2764C82.2517 20.4457 81.7858 21.3957 80.8541 22.1265C79.9589 22.8572 78.7713 23.2226 77.2915 23.2226C76.0126 23.2226 74.9073 22.9395 73.9756 22.3731C73.0438 21.7885 72.3861 21.0212 72.0025 20.0711L73.5371 19.1668C73.7929 19.8793 74.2496 20.4457 74.9073 20.8659C75.5833 21.2678 76.378 21.4688 77.2915 21.4688C78.2233 21.4688 78.9814 21.2861 79.5661 20.9207C80.1507 20.5553 80.443 20.0072 80.443 19.2764C80.443 18.2168 79.5021 17.4403 77.6204 16.9471C77.0905 16.8192 76.7434 16.737 76.579 16.7004C76.4146 16.6456 76.0857 16.5451 75.5924 16.399C75.1174 16.2345 74.7795 16.0975 74.5785 15.9879C74.3958 15.8783 74.1309 15.7139 73.7838 15.4946C73.4366 15.2571 73.19 15.0288 73.0439 14.8095C72.8977 14.572 72.7607 14.2797 72.6328 13.9326C72.5049 13.5672 72.441 13.1835 72.441 12.7816C72.441 11.6672 72.8794 10.7354 73.7564 9.98637C74.6698 9.23732 75.7934 8.8628 77.1271 8.8628C78.2233 8.8628 79.1915 9.10944 80.0319 9.60271C80.8906 10.096 81.5209 10.7811 81.9228 11.658L80.4156 12.535C79.904 11.2561 78.8079 10.6167 77.1271 10.6167C76.305 10.6167 75.6199 10.8085 75.0718 11.1922C74.5237 11.5758 74.2496 12.1056 74.2496 12.7816Z" fill="#0D114E"/>
<path d="M91.5477 8.8628C93.192 8.8628 94.4982 9.37435 95.4665 10.3974C96.4348 11.4023 96.919 12.7633 96.919 14.4807V22.8938H95.1103V14.4807C95.1103 13.2566 94.7814 12.3066 94.1237 11.6306C93.4843 10.9547 92.5708 10.6167 91.3833 10.6167C90.0131 10.6167 88.926 11.046 88.1222 11.9047C87.3366 12.7633 86.9438 14.0331 86.9438 15.7139V22.8938H85.1351V3.7108H86.9438V11.3292C87.9669 9.68493 89.5015 8.8628 91.5477 8.8628Z" fill="#0D114E"/>
<path d="M106.747 8.8628C108.793 8.8628 110.428 9.58444 111.652 11.0277C112.913 12.4528 113.543 14.1427 113.543 16.0975C113.543 16.1889 113.525 16.472 113.488 16.9471H101.458C101.64 18.3173 102.225 19.4134 103.211 20.2356C104.198 21.0577 105.431 21.4688 106.911 21.4688C108.994 21.4688 110.464 20.6923 111.323 19.1394L112.913 20.0711C112.31 21.0577 111.478 21.8341 110.419 22.4005C109.377 22.9486 108.199 23.2226 106.884 23.2226C104.728 23.2226 102.974 22.5467 101.622 21.1947C100.27 19.8428 99.5941 18.1254 99.5941 16.0427C99.5941 13.9783 100.261 12.2701 101.595 10.9181C102.928 9.54791 104.646 8.8628 106.747 8.8628ZM106.747 10.6167C105.322 10.6167 104.125 11.0369 103.157 11.8773C102.207 12.7177 101.64 13.823 101.458 15.1932H111.679C111.478 13.7316 110.921 12.608 110.008 11.8225C109.058 11.0186 107.971 10.6167 106.747 10.6167Z" fill="#0D114E"/>
<path d="M118.229 22.8938H116.42V2.88867H118.229V22.8938Z" fill="#0D114E"/>
<path d="M127.136 21.0029L131.932 9.19165H133.85L128.233 22.8938H126.04L120.422 9.19165H122.341L127.136 21.0029Z" fill="#0D114E"/>
<path d="M141.832 8.8628C143.878 8.8628 145.513 9.58444 146.737 11.0277C147.997 12.4528 148.628 14.1427 148.628 16.0975C148.628 16.1889 148.61 16.472 148.573 16.9471H136.543C136.725 18.3173 137.31 19.4134 138.296 20.2356C139.283 21.0577 140.516 21.4688 141.996 21.4688C144.079 21.4688 145.549 20.6923 146.408 19.1394L147.997 20.0711C147.395 21.0577 146.563 21.8341 145.504 22.4005C144.462 22.9486 143.284 23.2226 141.969 23.2226C139.813 23.2226 138.059 22.5467 136.707 21.1947C135.355 19.8428 134.679 18.1254 134.679 16.0427C134.679 13.9783 135.346 12.2701 136.68 10.9181C138.013 9.54791 139.731 8.8628 141.832 8.8628ZM141.832 10.6167C140.407 10.6167 139.21 11.0369 138.242 11.8773C137.292 12.7177 136.725 13.823 136.543 15.1932H146.764C146.563 13.7316 146.006 12.608 145.093 11.8225C144.143 11.0186 143.056 10.6167 141.832 10.6167Z" fill="#0D114E"/>
<path d="M152.395 12.7816C152.395 13.8412 153.335 14.6177 155.217 15.111C155.747 15.2389 156.094 15.3302 156.259 15.385C156.423 15.4216 156.743 15.522 157.218 15.6865C157.711 15.8326 158.049 15.9605 158.232 16.0701C158.433 16.1797 158.707 16.3533 159.054 16.5908C159.401 16.81 159.648 17.0384 159.794 17.2759C159.94 17.4951 160.077 17.7875 160.205 18.1528C160.333 18.5 160.397 18.8745 160.397 19.2764C160.397 20.4457 159.931 21.3957 158.999 22.1265C158.104 22.8572 156.916 23.2226 155.436 23.2226C154.158 23.2226 153.052 22.9395 152.121 22.3731C151.189 21.7885 150.531 21.0212 150.147 20.0711L151.682 19.1668C151.938 19.8793 152.395 20.4457 153.052 20.8659C153.728 21.2678 154.523 21.4688 155.436 21.4688C156.368 21.4688 157.126 21.2861 157.711 20.9207C158.296 20.5553 158.588 20.0072 158.588 19.2764C158.588 18.2168 157.647 17.4403 155.765 16.9471C155.235 16.8192 154.888 16.737 154.724 16.7004C154.56 16.6456 154.231 16.5451 153.737 16.399C153.262 16.2345 152.924 16.0975 152.723 15.9879C152.541 15.8783 152.276 15.7139 151.929 15.4946C151.582 15.2571 151.335 15.0288 151.189 14.8095C151.043 14.572 150.906 14.2797 150.778 13.9326C150.65 13.5672 150.586 13.1835 150.586 12.7816C150.586 11.6672 151.024 10.7354 151.901 9.98637C152.815 9.23732 153.938 8.8628 155.272 8.8628C156.368 8.8628 157.336 9.10944 158.177 9.60271C159.036 10.096 159.666 10.7811 160.068 11.658L158.561 12.535C158.049 11.2561 156.953 10.6167 155.272 10.6167C154.45 10.6167 153.765 10.8085 153.217 11.1922C152.669 11.5758 152.395 12.1056 152.395 12.7816Z" fill="#0D114E"/>
<path d="M2.94873 4.80992C2.94873 4.49583 3.20335 4.24121 3.51744 4.24121H11.195C11.5091 4.24121 11.7637 4.49583 11.7637 4.80992V13.0562H3.51744C3.20335 13.0562 2.94873 12.8016 2.94873 12.4875V4.80992Z" fill="url(#paint0_linear_1_637)"/>
<path d="M23.808 24.3825C23.808 24.6966 23.5534 24.9512 23.2393 24.9512L15.5618 24.9512C15.2477 24.9512 14.9931 24.6966 14.9931 24.3825L14.9931 16.1362L23.2393 16.1362C23.5534 16.1362 23.808 16.3908 23.808 16.7049L23.808 24.3825Z" fill="url(#paint1_linear_1_637)"/>
<path d="M20.4211 7.36914C20.7352 7.36914 20.9898 7.62376 20.9898 7.93785L20.9898 12.4875C20.9898 12.8016 20.7352 13.0562 20.4211 13.0562L15.3027 13.0562L15.3027 7.93785C15.3027 7.62376 15.5573 7.36914 15.8714 7.36914L20.4211 7.36914Z" fill="url(#paint2_linear_1_637)"/>
<path d="M6.33574 21.8027C6.02165 21.8027 5.76703 21.5481 5.76703 21.234L5.76703 16.6844C5.76703 16.3703 6.02165 16.1156 6.33574 16.1156L11.4541 16.1156L11.4541 21.234C11.4541 21.5481 11.1995 21.8027 10.8854 21.8027L6.33574 21.8027Z" fill="url(#paint3_linear_1_637)"/>
<path d="M6.33574 21.8027C6.02165 21.8027 5.76703 21.5481 5.76703 21.234L5.76703 16.6844C5.76703 16.3703 6.02165 16.1156 6.33574 16.1156L11.4541 16.1156L11.4541 21.234C11.4541 21.5481 11.1995 21.8027 10.8854 21.8027L6.33574 21.8027Z" fill="url(#paint4_linear_1_637)"/>
</g>
<defs>
<linearGradient id="paint0_linear_1_637" x1="1.95349" y1="5.09427" x2="14.4651" y2="16.895" gradientUnits="userSpaceOnUse">
<stop stop-color="#BBBFFB"/>
<stop offset="1" stop-color="#0107FD"/>
</linearGradient>
<linearGradient id="paint1_linear_1_637" x1="23.808" y1="25.8042" x2="11.0121" y2="12.7239" gradientUnits="userSpaceOnUse">
<stop stop-color="#BBBFFB"/>
<stop offset="1" stop-color="#0107FD"/>
</linearGradient>
<linearGradient id="paint2_linear_1_637" x1="21.5402" y1="7.36914" x2="15.3027" y2="13.0562" gradientUnits="userSpaceOnUse">
<stop stop-color="#F58F70"/>
<stop offset="1" stop-color="#F05728"/>
</linearGradient>
<linearGradient id="paint3_linear_1_637" x1="5.21667" y1="21.8027" x2="13.6556" y2="13.5473" gradientUnits="userSpaceOnUse">
<stop stop-color="#BBBFFB"/>
<stop offset="1" stop-color="#0107FD"/>
</linearGradient>
<linearGradient id="paint4_linear_1_637" x1="5.21666" y1="21.8027" x2="11.4541" y2="16.1156" gradientUnits="userSpaceOnUse">
<stop stop-color="#F58F70"/>
<stop offset="1" stop-color="#F05728"/>
</linearGradient>
<clipPath id="clip0_1_637">
<rect width="162.043" height="28" fill="white"/>
</clipPath>
</defs>
</svg>
